<svg width="570" height="192" xmlns="http://www.w3.org/2000/svg" xml:space="preserve" enable-background="new 0 0 1400 980" version="1.1">
 <g>
  <title>Layer 1</title>
  <g id="svg_1">
   <g id="svg_2">
    <g id="svg_28"/>
    <g id="svg_77"/>
    <g id="svg_111">
     <g id="svg_112">
      <path id="svg_113" d="m216.80001,126.99999l6,-1.8c0,0 1.2,-1.5 5.2,-1.1c4.1,0.4 14.2,0 14.2,0l9.3,-5.4l2.6,0l-3.1,5.9l1.3,0l0,2.5l-2.5,0.5l-5.4,0l-0.3,1.5l-14.1,0l-1,-1.5l-10.9,0l-1.3,-0.6z" fill="#2B2B2B"/>
     </g>
     <g id="svg_114">
      <path id="svg_115" d="m169.90001,126.99999l6,-1.8c0,0 1.2,-1.5 5.2,-1.1c4.1,0.4 14.2,0 14.2,0l9.3,-5.4l2.6,0l-3.1,5.9l1.3,0l0,2.5l-2.5,0.5l-5.4,0l-0.3,1.5l-14,0l-1,-1.5l-11,0l-1.3,-0.6z" fill="#2B2B2B"/>
     </g>
     <g id="svg_116">
      <path id="svg_117" d="m123.00001,126.99999l6,-1.8c0,0 1.2,-1.5 5.2,-1.1c4.1,0.4 14.2,0 14.2,0l9.3,-5.4l2.6,0l-3.1,5.9l1.3,0l0,2.5l-2.5,0.5l-5.4,0l-0.3,1.5l-14.1,0l-1,-1.5l-10.9,0l-1.3,-0.6z" fill="#2B2B2B"/>
     </g>
     <g id="svg_118">
      <path id="svg_119" d="m76.10001,126.99999l6,-1.8c0,0 1.2,-1.5 5.2,-1.1c4.1,0.4 14.2,0 14.2,0l9.3,-5.4l2.6,0l-3.1,5.9l1.3,0l0,2.5l-2.5,0.5l-5.4,0l-0.3,1.5l-14.1,0l-1,-1.5l-10.9,0l-1.3,-0.6z" fill="#2B2B2B"/>
     </g>
     <g id="svg_120">
      <path id="svg_121" d="m29.20001,126.99999l6,-1.8c0,0 1.2,-1.5 5.2,-1.1c4.1,0.4 14.2,0 14.2,0l9.3,-5.4l2.6,0l-3.1,5.9l1.3,0l0,2.5l-2.5,0.5l-5.4,0l-0.3,1.5l-14.1,0l-1,-1.5l-10.9,0l-1.3,-0.6z" fill="#2B2B2B"/>
     </g>
     <g id="svg_122">
      <polygon id="svg_123" points="26.70001220703125,178.39996337890625 37.79998779296875,188.20001220703125 523.3999633789062,188.20001220703125 554.7000122070312,178.39996337890625 " fill="#ED1C24"/>
      <path id="svg_124" d="m565.70001,174.39999l0,-41.5l-32.8,0l-42.7,0l-140.6,0l-89.1,0l-256.5,0l0,25.3l18.2,16.2l543.5,0zm-129.6,-30.3c0,-1.1 0.9,-2 2,-2l94.8,0c1.1,0 2,0.9 2,2l0,19.7c0,1.1 -0.9,2 -2,2l-94.8,0c-1.1,0 -2,-0.9 -2,-2l0,-19.7zm-16.3,0l4,0l0,19.7l-4,0l0,-19.7zm-23,0l4,0l0,19.7l-4,0l0,-19.7zm-23.1,0l4,0l0,19.7l-4,0l0,-19.7zm-23,0l4,0l0,19.7l-4,0l0,-19.7zm-23,0l4,0l0,19.7l-4,0l0,-19.7z" fill="#888888"/>
      <path id="svg_125" d="m569.70001,130.89999c0,-1.1 -0.9,-2 -2,-2l-32.8,0l0,-9.9c0,-9.9 -8.1,-18 -18,-18l-24.7,0l0,-13c0,-1.1 -0.9,-2 -2,-2l-21.4,0l0,-5.3l6.6,-0.5l-0.3,-4l-6.7,0.5c-0.2,-0.7 -0.3,-1.3 -0.6,-2l6.9,-2.1l-1.2,-3.8l-7.6,2.4c-2.9,-4.3 -7.9,-7.1 -13.5,-7.1c-9,0 -16.4,7.3 -16.4,16.4l0,5.6l-35.4,0l0,-55.9c0,-1.1 -0.9,-2 -2,-2l-9.7,0l0,-7.2l16.7,0c1.1,0 2,-0.9 2,-2l0,-7c0,-1.1 -0.9,-2 -2,-2l-16.7,0l0,-8c0,-1.1 -0.9,-2 -2,-2l-14.7,0c-1.1,0 -2,0.9 -2,2l0,8l-16.6,0c-1.1,0 -2,0.9 -2,2l0,7c0,1.1 0.9,2 2,2l16.6,0l0,7.2l-20.8,0c-1.1,0 -2,0.9 -2,2l0,26.9l-23.6,0c-1.1,0 -2,0.9 -2,2l0,6.9c0,1.1 0.9,2 2,2l23.6,0l0,18l-73,0c-8.9,0 -16.1,7.2 -16.1,16.1l0,26.8l-256.3,0c-1.1,0 -2,0.9 -2,2l0,28.2c0,0.6 0.2,1.1 0.7,1.5l19.5,17.3c0,0 0,0 0,0l15.6,13.8c0.4,0.3 0.8,0.5 1.3,0.5l486.6,0c0.2,0 0.4,0 0.6,-0.1l44.1,-13.8c0,0 0.1,0 0.1,0c0.1,0 0.1,0 0.2,-0.1c0.1,0 0.1,-0.1 0.2,-0.1c0,0 0.1,-0.1 0.1,-0.1c0.1,0 0.1,-0.1 0.2,-0.1c0,0 0.1,-0.1 0.1,-0.1c0.1,-0.1 0.1,-0.1 0.1,-0.2c0,0 0.1,-0.1 0.1,-0.1c0,-0.1 0.1,-0.1 0.1,-0.2c0,0 0,-0.1 0.1,-0.1c0,-0.1 0.1,-0.2 0.1,-0.4c0,0 0,0 0,-0.1c0,-0.1 0,-0.2 0,-0.3c0,0 0,0 0,0l0,-45.5l-0.1,0zm-531.9,57.3l-11.1,-9.8l527.9,0l-31.3,9.8l-485.5,0zm224.6,-86.1c0,-6.7 5.4,-12.1 12.1,-12.1l75,0l49.2,0l39.4,0l28.7,0l21.4,0l0,11l-138.6,0c-1.1,0 -2,0.9 -2,2l0,25.9l-85.1,0l0,-26.8l-0.1,0zm63.6,-41l21.6,0l0,2.9l-21.6,0l0,-2.9zm48.4,-40.1l10.7,0l0,7.2l-10.7,0l0,-7.2zm-18.6,-7.1l48,0l0,3l-48,0l0,-3zm29.3,-10l0,6l-10.7,0l0,-6l10.7,0zm-33.5,62.1l0,-6.9l0,-26.9l20.8,0l14.7,0l9.7,0l0,53.9l-45.2,0l0,-20.1zm88.5,14.4c0,-6.8 5.5,-12.3 12.3,-12.3c6.8,0 12.3,5.5 12.3,12.3l0,5.6l-24.7,0l0,-5.6l0.1,0zm90.8,38.6l0,9.9l-38.7,0l0,-23.9l24.7,0c7.7,0 14,6.3 14,14zm-42.7,9.9l-136.6,0l0,-23.9l136.6,0l0,23.9zm-484.2,4l256.4,0l89.1,0l140.7,0l42.7,0l32.8,0l0,41.5l-543.5,0l-18.2,-16.2l0,-25.3z" fill="#2B2B2B"/>
      <path id="svg_126" d="m347.60001,102.99999c0,-1.1 0.9,-2 2,-2l138.6,0l0,-11l-21.4,0l-28.7,0l-39.4,0l-49.2,0l-75,0c-6.7,0 -12.1,5.4 -12.1,12.1l0,26.8l85.1,0l0,-25.9l0.1,0z" fill="#888888"/>
      <rect id="svg_127" height="23.9" width="136.6" fill="#888888" y="104.99999" x="351.60001"/>
      <path id="svg_128" d="m396.80001,32.09999l-9.7,0l-14.7,0l-20.8,0l0,26.9l0,6.9l0,20l45.2,0l0,-53.8zm-6.5,43.6l-11.3,0l0,-4l11.3,0l0,4zm0,-9.8l-11.3,0l0,-4l11.3,0l0,4zm0,-9.7l-11.3,0l0,-4l11.3,0l0,4zm0,-9.8l-11.3,0l0,-4l11.3,0l0,4z" fill="#888888"/>
      <rect id="svg_129" height="4" width="11.3" fill="#2B2B2B" y="42.39999" x="379.00001"/>
      <rect id="svg_130" height="4" width="11.3" fill="#2B2B2B" y="52.19999" x="379.00001"/>
      <rect id="svg_131" height="4" width="11.3" fill="#2B2B2B" y="61.89999" x="379.00001"/>
      <rect id="svg_132" height="4" width="11.3" fill="#2B2B2B" y="71.69999" x="379.00001"/>
      <rect id="svg_133" height="6" width="10.7" fill="#888888" y="3.89999" x="374.40001"/>
      <rect id="svg_134" height="7.2" width="10.7" fill="#888888" y="20.99999" x="374.40001"/>
      <rect id="svg_135" height="3" width="48" fill="#888888" y="13.89999" x="355.80001"/>
      <rect id="svg_136" height="2.9" width="21.6" fill="#888888" y="61.09999" x="326.00001"/>
      <path id="svg_137" d="m464.80001,80.39999c0,-6.8 -5.5,-12.3 -12.3,-12.3c-6.8,0 -12.3,5.5 -12.3,12.3l0,5.6l24.7,0l0,-5.6l-0.1,0z" fill="#888888"/>
      <path id="svg_138" d="m492.20001,128.89999l38.7,0l0,-9.9c0,-7.7 -6.3,-14 -14,-14l-24.7,0l0,23.9z" fill="#888888"/>
      <rect id="svg_139" height="15.7" width="90.8" fill="#888888" y="146.09999" x="440.10001"/>
      <path id="svg_140" d="m438.10001,165.79999l94.8,0c1.1,0 2,-0.9 2,-2l0,-19.7c0,-1.1 -0.9,-2 -2,-2l-94.8,0c-1.1,0 -2,0.9 -2,2l0,19.7c0,1.1 0.9,2 2,2zm2,-19.7l90.8,0l0,15.7l-90.8,0l0,-15.7z" fill="#2B2B2B"/>
      <rect id="svg_141" height="19.7" width="4" fill="#2B2B2B" y="144.09999" x="419.80001"/>
      <rect id="svg_142" height="19.7" width="4" fill="#2B2B2B" y="144.09999" x="396.80001"/>
      <rect id="svg_143" height="19.7" width="4" fill="#2B2B2B" y="144.09999" x="373.70001"/>
      <rect id="svg_144" height="19.7" width="4" fill="#2B2B2B" y="144.09999" x="350.70001"/>
      <rect id="svg_145" height="19.7" width="4" fill="#2B2B2B" y="144.09999" x="327.70001"/>
     </g>
    </g>
   </g>
  </g>
 </g>

</svg>