<svg width="565" height="139" xmlns="http://www.w3.org/2000/svg" version="1.1" enable-background="new 0 0 1400 980" xml:space="preserve">
 <g>
  <title>Layer 1</title>
  <g id="svg_1">
   <g id="svg_26">
    <g id="svg_25">
     <g id="svg_2">
      <path fill="#2B2B2B" d="m212.40473,84.49999l6,-1.8c0,0 1.2,-1.5 5.2,-1.1s14.2,0 14.2,0l9.3,-5.4l2.6,0l-3.1,5.9l1.3,0l0,2.5l-2.5,0.5l-5.4,0l-0.3,1.5l-14.1,0l-1,-1.5l-10.9,0l-1.3,-0.6z" id="svg_1"/>
     </g>
     <g id="svg_4">
      <path fill="#2B2B2B" d="m165.00473,84.49999l6,-1.8c0,0 1.2,-1.5 5.2,-1.1c4.1,0.4 14.2,0 14.2,0l9.3,-5.4l2.6,0l-3.1,5.9l1.3,0l0,2.5l-2.5,0.5l-5.4,0l-0.3,1.5l-14.1,0l-1,-1.5l-10.9,0l-1.3,-0.6z" id="svg_3"/>
     </g>
     <g id="svg_6">
      <path fill="#2B2B2B" d="m117.70473,84.49999l6,-1.8c0,0 1.2,-1.5 5.2,-1.1s14.2,0 14.2,0l9.3,-5.4l2.6,0l-3.1,5.9l1.3,0l0,2.5l-2.5,0.5l-5.4,0l-0.3,1.5l-14,0l-1,-1.5l-10.9,0l-1.4,-0.6z" id="svg_5"/>
     </g>
     <g id="svg_8">
      <path fill="#2B2B2B" d="m70.40473,84.49999l6,-1.8c0,0 1.2,-1.5 5.2,-1.1c4.1,0.4 14.2,0 14.2,0l9.3,-5.4l2.6,0l-3.1,5.9l1.3,0l0,2.5l-2.5,0.5l-5.4,0l-0.3,1.5l-14.1,0l-1,-1.5l-10.9,0l-1.3,-0.6z" id="svg_7"/>
     </g>
     <g id="svg_10">
      <path fill="#2B2B2B" d="m23.10473,84.49999l6,-1.8c0,0 1.2,-1.5 5.2,-1.1c4.1,0.4 14.2,0 14.2,0l9.3,-5.4l2.6,0l-3.1,5.9l1.3,0l0,2.5l-2.5,0.5l-5.4,0l-0.3,1.5l-14.1,0l-1,-1.5l-10.9,0l-1.3,-0.6z" id="svg_9"/>
     </g>
     <g id="svg_24">
      <path fill="#888888" d="m348.30473,90.09999l-69.6,0l-272.7,0c4.1,5.6 12.3,17.2 15.6,25.7l535.3,0l3.9,-8.2l0,-17.5l-153.9,0l-58.6,0zm139.7,4.4l4,0l0,12l-4,0l0,-12zm-10.8,0l4,0l0,12l-4,0l0,-12zm-10.8,0l4,0l0,12l-4,0l0,-12zm-10.7,0l4,0l0,12l-4,0l0,-12zm-10.8,0l4,0l0,12l-4,0l0,-12z" id="svg_11"/>
      <path fill="#2B2B2B" d="m562.80473,85.99999l-153.9,0l0,-23.1c0,-1.1 -0.9,-2 -2,-2l-56.6,0l0,-4l13.3,0c1.1,0 2,-0.9 2,-2l0,-8c0,-1.1 -0.9,-2 -2,-2l-13.3,0l0,-42.9c0,-1.1 -0.9,-2 -2,-2l-9.5,0c-1.1,0 -2,0.9 -2,2l0,42.9l-13,0l0,-6.4c0,-12.5 -10.2,-22.7 -22.7,-22.7c-12.5,0 -22.7,10.2 -22.7,22.7l0,6.4l-15,0c-1.1,0 -2,0.9 -2,2l0,8c0,1.1 0.9,2 2,2l13.3,0l0,29.1l-274.7,0c-0.8,0 -1.5,0.4 -1.8,1.1c-0.3,0.7 -0.3,1.5 0.2,2.1c0.1,0.2 14.3,18.5 17.9,29.1c1.1,3.2 0.8,4.4 0.6,4.8c-4,8.4 -0.2,13.7 -0.1,13.9c0.4,0.5 1,0.8 1.6,0.8l478.3,0c7.4,0 14.2,-3.8 18,-10.1l26.8,-1.9l2.2,12c0.2,0.9 1,1.6 2,1.6l7.9,0c1.1,0 2,-0.9 2,-2l0,-14l2.4,-5l4.7,-9.8c0.1,-0.3 0.2,-0.6 0.2,-0.9l0,-20c-0.1,-0.8 -1,-1.7 -2.1,-1.7zm-9,36.3c-0.1,0.3 -0.2,0.6 -0.2,0.9l0,12.5l-4.3,0l-2.3,-12.1c-0.2,-1 -1.1,-1.7 -2.1,-1.6l-29.6,2.1c-0.7,0 -1.3,0.4 -1.6,1.1c-3,5.5 -8.7,9 -15,9l-477.1,0c-0.6,-1.4 -1.2,-4.5 0.9,-9.1c0.6,-1.3 0.7,-3 0.3,-5.2l532.2,0l-1.2,2.4zm7,-14.7l-3.9,8.2l-535.3,0c-3.3,-8.5 -11.5,-20.1 -15.6,-25.7l272.7,0l69.6,0l58.6,0l153.9,0l0,17.5zm-278.3,-69.1c0,-10.3 8.4,-18.6 18.6,-18.6c10.3,0 18.6,8.4 18.6,18.6l0,6.4l-37.3,0l0,-6.4l0.1,0zm58.3,-34.5l5.5,0l0,40.9l-5.5,0l0,-40.9zm-75.4,44.9l15,0l41.3,0l17,0l9.5,0l13.3,0l0,4l-13.3,0l-69.6,0l-13.3,0l0,-4l0.1,0zm15.3,8l65.6,0l0,6l0,23.1l-65.6,0l0,-29.1zm124.2,29.1l-54.6,0l0,-21.1l54.6,0l0,21.1z" id="svg_12"/>
      <path fill="#ED1C24" d="m22.50473,124.89999c-2.1,4.5 -1.4,7.6 -0.9,9.1l477.1,0c6.3,0 12,-3.4 15,-9c0.3,-0.6 0.9,-1 1.6,-1.1l29.6,-2.1c1,-0.1 1.9,0.6 2.1,1.6l2.3,12.1l4.3,0l0,-12.5c0,-0.3 0.1,-0.6 0.2,-0.9l1.2,-2.5l-532.2,0c0.4,2.3 0.3,4 -0.3,5.3z" id="svg_13"/>
      <polygon fill="#888888" points="346.3047180175781,62.899993896484375 346.3047180175781,56.899993896484375 280.7047424316406,56.899993896484375 280.7047424316406,86 346.3047180175781,86 " id="svg_14"/>
      <rect x="350.30473" y="64.89999" fill="#888888" width="54.6" height="21.1" id="svg_15"/>
      <polygon fill="#888888" points="348.3047180175781,52.899993896484375 361.6047668457031,52.899993896484375 361.6047668457031,48.899993896484375 348.3047180175781,48.899993896484375 338.8047180175781,48.899993896484375 321.8047180175781,48.899993896484375 280.5047302246094,48.899993896484375 265.4047546386719,48.899993896484375 265.4047546386719,52.899993896484375 278.7047424316406,52.899993896484375 " id="svg_16"/>
      <path fill="#888888" d="m319.80473,38.49999c0,-10.3 -8.4,-18.6 -18.6,-18.6c-10.3,0 -18.6,8.4 -18.6,18.6l0,6.4l37.3,0l0,-6.4l-0.1,0z" id="svg_17"/>
      <rect x="444.90473" y="94.49999" fill="#2B2B2B" width="4" height="12" id="svg_18"/>
      <rect x="455.70473" y="94.49999" fill="#2B2B2B" width="4" height="12" id="svg_19"/>
      <rect x="466.40473" y="94.49999" fill="#2B2B2B" width="4" height="12" id="svg_20"/>
      <rect x="477.20473" y="94.49999" fill="#2B2B2B" width="4" height="12" id="svg_21"/>
      <rect x="488.00473" y="94.49999" fill="#2B2B2B" width="4" height="12" id="svg_22"/>
      <rect x="340.80473" y="3.99999" fill="#888888" width="5.5" height="40.9" id="svg_23"/>
     </g>
    </g>
   </g>
  </g>
 </g>

</svg>