<svg width="611" height="153" xmlns="http://www.w3.org/2000/svg" xml:space="preserve" enable-background="new 0 0 1400 980" version="1.1">

 <g>
  <title>Layer 1</title>
  <g id="svg_296">
   <g id="svg_419">
    <polygon id="svg_389" points="611.3999996185303,54.4000244140625 611.3999996185303,107 427.699987411499,117.4000244140625 375.0000057220459,153.20001220703125 110.39999961853027,153.20001220703125 100.99999809265137,119.20001220703125 11.999998092651367,115.70001220703125 8.899999618530273,97.10003662109375 8.19999885559082,93.20001220703125 0,45.20001220703125 92.49999809265137,41.20001220703125 154.0000057220459,7.20001220703125 318.5000057220459,7.20001220703125 338.3999996185303,0 409.0000057220459,0 413.5000057220459,19.5 414.29999351501465,23.4000244140625 419.0000057220459,43.9000244140625 " fill="#444444"/>
    <rect id="svg_390" height="28.4" width="87.3" fill="#6C6B6B" y="124.80002" x="241"/>
    <polygon id="svg_391" points="264.5000057220459,124.800048828125 285.3999996185303,117.10003662109375 328.29999351501465,117.10003662109375 328.29999351501465,124.800048828125 " fill="#2E2F2F"/>
    <rect id="svg_392" height="23.4" width="66.9" fill="#738181" y="129.80002" x="241"/>
    <rect id="svg_393" height="13.9" width="32.6" fill="#444444" y="134.60002" x="268.1"/>
    <rect id="svg_394" height="7.9" width="24" fill="#2E2F2F" y="137.60002" x="272.4"/>
    <rect id="svg_395" height="28.4" width="36.8" fill="#6C6B6B" y="124.80002" x="338"/>
    <polygon id="svg_396" points="419.0000057220459,43.9000244140625 71.09999656677246,105.300048828125 65.70000267028809,106.20001220703125 11.999998092651367,115.70001220703125 11.100000381469727,110.5 64.70000267028809,100.9000244140625 70.09999656677246,99.9000244140625 417.6000118255615,37.5 " fill="#6C6B6B"/>
    <polygon id="svg_397" points="71.09999656677246,105.300048828125 65.70000267028809,106.20001220703125 64.70000267028809,100.9000244140625 70.09999656677246,99.9000244140625 " fill="#444444"/>
    <g id="svg_405">
     <polygon id="svg_398" points="112.79999351501465,97.9000244140625 118.20000267028809,97 117.20000267028809,91.5 111.79999351501465,92.4000244140625 " fill="#444444"/>
     <polygon id="svg_399" points="211.39999961853027,74.5 206.0000057220459,75.5 207.09999656677246,81.300048828125 212.5000057220459,80.300048828125 " fill="#444444"/>
     <polygon id="svg_400" points="164.29999351501465,83 158.89999961853027,84 159.89999961853027,89.60003662109375 165.29999351501465,88.70001220703125 " fill="#444444"/>
     <polygon id="svg_401" points="305.6000118255615,57.60003662109375 300.199987411499,58.60003662109375 301.29999351501465,64.70001220703125 306.699987411499,63.70001220703125 " fill="#444444"/>
     <polygon id="svg_402" points="399.79999351501465,40.70001220703125 394.3999996185303,41.70001220703125 395.6000118255615,48 401.0000057220459,47.10003662109375 " fill="#444444"/>
     <polygon id="svg_403" points="258.5000057220459,66.10003662109375 253.10001182556152,67.10003662109375 254.19998741149902,73 259.6000118255615,72 " fill="#444444"/>
     <polygon id="svg_404" points="352.699987411499,49.20001220703125 347.29999351501465,50.10003662109375 348.3999996185303,56.300048828125 353.79999351501465,55.4000244140625 " fill="#444444"/>
    </g>
    <polygon id="svg_406" points="5.600000381469727,77.9000244140625 410.199987411499,5.300048828125 409.0000057220459,0 4.69999885559082,72.60003662109375 " fill="#6C6B6B"/>
    <g id="svg_415">
     <polygon id="svg_407" points="157.0000057220459,45.300048828125 151.89999961853027,46.20001220703125 153.0000057220459,51.5 158.0000057220459,50.60003662109375 " fill="#444444"/>
     <polygon id="svg_408" points="57.89999961853027,68.5 62.99999809265137,67.60003662109375 61.99999809265137,62.4000244140625 56.80000114440918,63.300048828125 " fill="#444444"/>
     <polygon id="svg_409" points="110.70000267028809,53.60003662109375 105.5000057220459,54.5 106.59999656677246,59.800048828125 111.70000267028809,58.9000244140625 " fill="#444444"/>
     <polygon id="svg_410" points="204.29999351501465,36.800048828125 199.2000026702881,37.70001220703125 200.29999351501465,43 205.29999351501465,42.10003662109375 " fill="#444444"/>
     <polygon id="svg_411" points="345.79999351501465,11.4000244140625 340.79999351501465,12.300048828125 341.79999351501465,17.60003662109375 346.79999351501465,16.70001220703125 " fill="#444444"/>
     <polygon id="svg_412" points="392.699987411499,3 387.6000118255615,3.9000244140625 388.699987411499,9.10003662109375 393.699987411499,8.20001220703125 " fill="#444444"/>
     <polygon id="svg_413" points="298.6000118255615,19.9000244140625 293.5000057220459,20.800048828125 294.6000118255615,26 299.6000118255615,25.10003662109375 " fill="#444444"/>
     <polygon id="svg_414" points="252.29999351501465,28.20001220703125 247.19998741149902,29.10003662109375 248.29999351501465,34.4000244140625 253.29999351501465,33.5 " fill="#444444"/>
    </g>
    <polygon id="svg_416" points="414.29999351501465,23.4000244140625 8.899999618530273,97.10003662109375 8.19999885559082,93.20001220703125 413.5000057220459,19.5 " fill="#BEB647"/>
    <path id="svg_417" d="m611.4,65.50002l0,3l-199,0c-0.8,0 -1.5,-0.7 -1.5,-1.5c0,-0.8 0.7,-1.5 1.5,-1.5l199,0z" fill="#6C6B6B"/>
    <path id="svg_418" d="m611.4,89.20002l0,3l-199,0c-0.8,0 -1.5,-0.7 -1.5,-1.5c0,-0.8 0.7,-1.5 1.5,-1.5l199,0z" fill="#6C6B6B"/>
   </g>
   <polygon id="svg_420" points="166.29999351501465,153.20001220703125 164.29999351501465,153.20001220703125 164.29999351501465,123.800048828125 129.7000026702881,123.800048828125 129.7000026702881,153.20001220703125 127.70000267028809,153.20001220703125 127.70000267028809,121.800048828125 166.29999351501465,121.800048828125 " fill="#BE1E2D"/>
   <polygon id="svg_421" points="219.5000057220459,153.20001220703125 217.5000057220459,153.20001220703125 217.5000057220459,138.60003662109375 165.29999351501465,138.60003662109375 165.29999351501465,136.60003662109375 219.5000057220459,136.60003662109375 " fill="#BE1E2D"/>
  </g>
 </g>
</svg>