<svg width="573" height="118" xmlns="http://www.w3.org/2000/svg" xml:space="preserve" enable-background="new 0 0 1400 980" version="1.1">

 <g>
  <title>Layer 1</title>
  <g id="svg_72">
   <polygon id="svg_389" points="456.6999816894531,10.29998779296875 466.1999816894531,26.29998779296875 437.4999694824219,24.60003662109375 429.3999938964844,10.29998779296875 " fill="#2E2F2F"/>
   <polygon id="svg_390" points="45.100006103515625,1.10003662109375 36.79998779296875,1.10003662109375 29.199981689453125,13.60003662109375 34,20.79998779296875 " fill="#2E2F2F"/>
   <polygon id="svg_391" points="28,31.5 16.100006103515625,17.200042724609375 4.899993896484375,17.200042724609375 0,24.29998779296875 0,32.29998779296875 " fill="#2E2F2F"/>
   <polygon id="svg_392" points="572.8999938964844,43.5 572.8999938964844,74.39999389648438 531.3999938964844,87.9000244140625 437.4999694824219,93.29998779296875 433.1000061035156,101.10003662109375 431.1000061035156,104.60003662109375 423.4999694824219,117.9000244140625 100.60000610351562,117 66,116.9000244140625 45,116.9000244140625 28,86.4000244140625 0,85.60003662109375 0,32.399993896484375 28,31.5 45,1.10003662109375 65.19998168945312,1 67.39999389648438,1 99.29998779296875,0.9000244140625 101.39999389648438,0.9000244140625 423.4999694824219,0 437.4999694824219,24.60003662109375 531.3999938964844,30.10003662109375 " fill="#444444"/>
   <polygon id="svg_393" points="456.6999816894531,107.60003662109375 466.1999816894531,91.60003662109375 437.4999694824219,93.29998779296875 429.3999938964844,107.60003662109375 " fill="#2E2F2F"/>
   <polygon id="svg_394" points="45.100006103515625,116.9000244140625 36.79998779296875,116.9000244140625 29.199981689453125,104.29998779296875 34,97.10003662109375 " fill="#2E2F2F"/>
   <polygon id="svg_395" points="28,86.4000244140625 16.100006103515625,100.70001220703125 4.899993896484375,100.70001220703125 0,93.60003662109375 0,85.60003662109375 " fill="#2E2F2F"/>
   <polygon id="svg_396" points="418.1000061035156,5.5 429.3999938964844,25.10003662109375 418.1000061035156,30.9000244140625 " fill="#738181"/>
   <polygon id="svg_397" points="418.1000061035156,13.70001220703125 411.6999816894531,8.29998779296875 381.6999816894531,8.29998779296875 378.6000061035156,11 372.6000061035156,5.5 418.1000061035156,5.5 " fill="#2E2F2F"/>
   <polygon id="svg_398" points="418.1000061035156,22.70001220703125 411.6999816894531,28.10003662109375 381.6999816894531,28.10003662109375 378.6000061035156,25.399993896484375 372.6000061035156,30.9000244140625 418.1000061035156,30.9000244140625 " fill="#2E2F2F"/>
   <polygon id="svg_399" points="381.6999816894531,8.29998779296875 411.6999816894531,8.29998779296875 418.1000061035156,13.70001220703125 418.1000061035156,18.10003662109375 418.1000061035156,18.29998779296875 418.1000061035156,22.70001220703125 411.6999816894531,28.10003662109375 381.6999816894531,28.10003662109375 378.6000061035156,25.399993896484375 378.6000061035156,18.200042724609375 378.6000061035156,11 " fill="#6C6B6B"/>
   <polygon id="svg_400" points="378.6000061035156,11 378.6000061035156,18.200042724609375 378.6000061035156,25.399993896484375 372.6000061035156,30.9000244140625 372.6000061035156,18.200042724609375 372.6000061035156,5.5 " fill="#738181"/>
   <rect id="svg_401" height="11.4" width="29.6" fill="#2E2F2F" y="11.80002" x="378.59999"/>
   <rect id="svg_402" height="17.2" width="66.4" fill="#2E2F2F" y="0.50002" x="179.59999"/>
   <rect id="svg_403" height="15.7" width="25.6" fill="#6C6B6B" y="12.60002" x="198.89999"/>
   <polygon id="svg_404" points="220.80001831054688,12.60003662109375 220.80001831054688,22 217.49996948242188,24.9000244140625 198.89999389648438,24.9000244140625 198.89999389648438,12.60003662109375 " fill="#738181"/>
   <circle id="svg_405" r="4" cy="18.80002" cx="210.99999" fill="#2E2F2F"/>
   <polygon id="svg_406" points="107.10000610351562,20.10003662109375 58.100006103515625,20.10003662109375 65.19998168945312,1 67.39999389648438,1 61,18.10003662109375 104.39999389648438,18.10003662109375 99.29998779296875,0.9000244140625 101.39999389648438,0.9000244140625 " fill="#BEB647"/>
   <polygon id="svg_407" points="101.5,117.29998779296875 99.60000610351562,116.79998779296875 104.39999389648438,98 60.899993896484375,98 66.89999389648438,116.60003662109375 65,117.20001220703125 58.199981689453125,96 107,96 " fill="#BEB647"/>
   <path id="svg_408" d="m348.39999,48.80002l-61.5,0l0,-37.2l61.5,0l0,37.2zm-59.5,-2l57.5,0l0,-33.2l-57.5,0l0,33.2z" fill="#BE1E2D"/>
   <rect id="svg_409" height="2" width="572.9" fill="#BE1E2D" y="58.00002" x="-0.00001"/>
   <rect id="svg_410" height="58.5" width="2" fill="#BE1E2D" y="0.50002" x="257.99999"/>
   <rect id="svg_411" height="5.4" width="572.9" fill="#6C6B6B" y="69.00002" x="-0.00001"/>
   <rect id="svg_412" height="5.4" width="2" fill="#444444" y="69.00002" x="535.09999"/>
   <rect id="svg_413" height="5.4" width="2" fill="#444444" y="69.00002" x="489.69999"/>
   <rect id="svg_414" height="5.4" width="2" fill="#444444" y="69.00002" x="444.29999"/>
   <rect id="svg_415" height="5.4" width="2" fill="#444444" y="69.00002" x="398.89999"/>
   <rect id="svg_416" height="5.4" width="2" fill="#444444" y="69.00002" x="353.49999"/>
   <rect id="svg_417" height="5.4" width="2" fill="#444444" y="69.00002" x="308.09999"/>
   <rect id="svg_418" height="5.4" width="2" fill="#444444" y="69.00002" x="262.69999"/>
   <rect id="svg_419" height="5.4" width="2" fill="#444444" y="69.00002" x="217.29999"/>
   <rect id="svg_420" height="5.4" width="2" fill="#444444" y="69.00002" x="171.89999"/>
   <rect id="svg_421" height="5.4" width="2" fill="#444444" y="69.00002" x="126.49999"/>
   <rect id="svg_422" height="5.4" width="2" fill="#444444" y="69.00002" x="81.09999"/>
   <rect id="svg_423" height="5.4" width="2" fill="#444444" y="69.00002" x="35.69999"/>
   <rect id="svg_424" height="2" width="477.9" fill="#BEB647" y="81.60002" x="-0.00001"/>
   <rect id="svg_425" height="35.2" width="2" fill="#BEB647" y="82.50002" x="364.39999"/>
   <polygon id="svg_426" points="433.1000061035156,82.70001220703125 433.1000061035156,101.10003662109375 431.1000061035156,104.60003662109375 431.1000061035156,82.70001220703125 " fill="#BEB647"/>
   <polygon id="svg_427" points="382.1999816894531,117.79998779296875 380.1999816894531,117.79998779296875 380.1999816894531,95.10003662109375 423.6999816894531,95.10003662109375 423.6999816894531,97.10003662109375 382.1999816894531,97.10003662109375 " fill="#BE1E2D"/>
  </g>
 </g>
</svg>